<svg width="40.000000" height="40.000000" viewBox="0 0 40 40" fill="none" xmlns="http://www.w3.org/2000/svg" xmlns:xlink="http://www.w3.org/1999/xlink">
	<desc>
			Created with Pixso.
	</desc>
	<defs/>
	<path id="Vector" d="M25 36.6667C33.334 36.6667 36.668 33.3335 36.668 25.0002L36.668 15.0002C36.668 6.66675 33.334 3.3335 25 3.3335L15 3.3335C6.66797 3.3335 3.33398 6.66675 3.33398 15.0002L3.33398 25.0002C3.33398 33.3335 6.66797 36.6667 15 36.6667L25 36.6667Z" stroke="#008EC4" stroke-opacity="1.000000" stroke-width="2.500000" stroke-linejoin="round"/>
	<path id="Vector" d="M22.7852 12.5168C21.9512 12.2668 21.0352 12.1001 20.002 12.1001C15.4004 12.1001 11.668 15.8335 11.668 20.4333C11.668 25.0334 15.4004 28.7668 20.002 28.7668C24.6016 28.7668 28.334 25.0334 28.334 20.4333C28.334 18.7168 27.8184 17.1335 26.9355 15.8" stroke="#008EC4" stroke-opacity="1.000000" stroke-width="2.500000" stroke-linejoin="round" stroke-linecap="round"/>
	<path id="Vector" d="M23.9688 12.75L21.2012 9.56665" stroke="#008EC4" stroke-opacity="1.000000" stroke-width="2.500000" stroke-linejoin="round" stroke-linecap="round"/>
	<path id="Vector" d="M23.9648 12.75L20.7324 15.1167" stroke="#008EC4" stroke-opacity="1.000000" stroke-width="2.500000" stroke-linejoin="round" stroke-linecap="round"/>
	<g opacity="0.000000"/>
</svg>
