<svg width="32.000000" height="32.000000" viewBox="0 0 32 32" fill="none" xmlns="http://www.w3.org/2000/svg" xmlns:xlink="http://www.w3.org/1999/xlink">
	<desc>
			Created with Pixso.
	</desc>
	<defs/>
	<path id="Vector" d="M32 16C32 7.16357 24.8359 0 16 0C7.16406 0 0 7.16357 0 16C0 23.9863 5.85156 30.6069 13.5039 31.8101L13.5039 20.6216L9.44336 20.6216L9.44336 16L13.5039 16L13.5039 12.4727C13.5039 8.46582 15.8906 6.25 19.5449 6.25C21.3008 6.25 23.127 6.56641 23.127 6.56641L23.127 10.501L21.1094 10.501C19.1211 10.501 18.5059 11.731 18.5059 12.9971L18.5059 16L22.9473 16L22.2402 20.6216L18.5137 20.6216L18.5137 31.8008C26.1484 30.6069 32 23.9863 32 16Z" fill="#F2F2F2" fill-opacity="1.000000" fill-rule="nonzero"/>
	<path id="Vector" d="M22.2324 20.6221L22.9375 16L18.4961 16L18.4961 12.9971C18.4961 11.731 19.1211 10.501 21.1016 10.501L23.1172 10.501L23.1172 6.56641C23.1172 6.56641 21.291 6.25 19.5371 6.25C15.8828 6.25 13.4941 8.46582 13.4941 12.4727L13.4941 16L9.43359 16L9.43359 20.6221L13.4941 20.6221L13.4941 31.8013C14.3086 31.9277 15.1406 32 15.9902 32C16.8418 32 17.6738 31.937 18.4863 31.8013L18.4863 20.6221L22.2324 20.6221Z" fill="#000000" fill-opacity="1.000000" fill-rule="nonzero"/>
</svg>
