<svg width="40.000000" height="40.000000" viewBox="0 0 40 40" fill="none" xmlns="http://www.w3.org/2000/svg" xmlns:xlink="http://www.w3.org/1999/xlink">
	<desc>
			Created with Pixso.
	</desc>
	<defs/>
	<path id="Vector" d="M14.4531 23.8828C14.4531 26.033 16.1035 27.7664 18.1523 27.7664L22.3359 27.7664C24.1191 27.7664 25.5703 26.2495 25.5703 24.3828C25.5703 22.3496 24.6855 21.6328 23.3691 21.1663L16.6523 18.833C15.3359 18.3662 14.4531 17.6497 14.4531 15.6162C14.4531 13.7495 15.9023 12.2329 17.6855 12.2329L21.8691 12.2329C23.9199 12.2329 25.5703 13.9663 25.5703 16.1162" stroke="#008EC4" stroke-opacity="1.000000" stroke-width="2.500000" stroke-linejoin="round" stroke-linecap="round"/>
	<path id="Vector" d="M20 10L20 10" stroke="#008EC4" stroke-opacity="1.000000" stroke-width="2.500000" stroke-linejoin="round" stroke-linecap="round"/>
	<path id="Vector" d="M20 36.6667C10.7969 36.6667 3.33398 29.2048 3.33398 20.0002C3.33398 10.7954 10.7969 3.3335 20 3.3335C29.2051 3.3335 36.668 10.7954 36.668 20.0002C36.668 29.2048 29.2051 36.6667 20 36.6667Z" stroke="#008EC4" stroke-opacity="1.000000" stroke-width="2.500000" stroke-linejoin="round"/>
	<g opacity="0.000000"/>
</svg>
