<svg width="32.000000" height="32.000000" viewBox="0 0 32 32" fill="none" xmlns="http://www.w3.org/2000/svg" xmlns:xlink="http://www.w3.org/1999/xlink">
	<desc>
			Created with Pixso.
	</desc>
	<defs/>
	<path id="Vector" d="M32 16C32 24.8364 24.8359 32 16 32C7.16406 32 0 24.8364 0 16C0 7.16357 7.16406 0 16 0C24.8359 0 32 7.16357 32 16Z" fill="#F2F2F2" fill-opacity="1.000000" fill-rule="evenodd"/>
	<path id="Vector" d="M24.3105 14.1548C24.1484 14.1729 23.9863 14.1821 23.8223 14.1821C22.0234 14.1821 20.3418 13.2773 19.3457 11.7671L19.3457 19.9976C19.3457 23.3623 16.623 26.0845 13.2598 26.0845C9.89453 26.0845 7.17188 23.3623 7.17188 19.9976C7.17188 16.6328 9.89453 13.9106 13.2598 13.9106C13.3848 13.9106 13.5117 13.9194 13.6387 13.9287L13.6387 16.9316C13.5117 16.9136 13.3945 16.8955 13.2598 16.8955C11.541 16.8955 10.1562 18.2881 10.1562 19.9976C10.1562 21.7163 11.5488 23.1001 13.2598 23.1001C14.9766 23.1001 16.4883 21.7524 16.4883 20.0337L16.5156 6.05078L19.3828 6.05078C19.6543 8.61963 21.7246 10.6362 24.3027 10.8174L24.3105 14.1548Z" fill="#000000" fill-opacity="1.000000" fill-rule="nonzero"/>
</svg>
