<svg width="32.000000" height="32.000000" viewBox="0 0 32 32" fill="none" xmlns="http://www.w3.org/2000/svg" xmlns:xlink="http://www.w3.org/1999/xlink">
	<desc>
			Created with Pixso.
	</desc>
	<defs/>
	<path id="Vector" d="M32 16C32 24.8364 24.8359 32 16 32C7.16406 32 0 24.8364 0 16C0 7.16357 7.16406 0 16 0C24.8359 0 32 7.16357 32 16Z" fill="#F2F2F2" fill-opacity="1.000000" fill-rule="evenodd"/>
	<path id="Vector" d="M24.8457 10.5186C24.2949 10.772 23.6797 10.9258 23.082 11.0254C23.3633 10.98 23.7793 10.4644 23.9512 10.2563C24.2051 9.93994 24.4219 9.57812 24.5391 9.18896C24.5566 9.16211 24.5664 9.1167 24.5391 9.09863C24.5039 9.08057 24.4766 9.08984 24.4492 9.10791C23.7793 9.46973 23.0918 9.72266 22.3594 9.9126C22.2969 9.93066 22.25 9.9126 22.2148 9.87646C22.1504 9.8042 22.0977 9.74072 22.0332 9.68652C21.7266 9.42432 21.3906 9.21631 21.0215 9.0625C20.5332 8.86377 19.998 8.78223 19.4648 8.80908C18.9492 8.84521 18.4434 8.99023 17.9902 9.2251C17.5293 9.46045 17.123 9.79492 16.7969 10.1929C16.4629 10.6094 16.209 11.0977 16.082 11.6133C15.9551 12.1104 15.9746 12.6079 16.0469 13.1147C16.0547 13.1958 16.0469 13.2139 15.9746 13.1958C13.0977 12.771 10.7188 11.7397 8.7832 9.53271C8.70117 9.43311 8.65625 9.43311 8.58398 9.54199C7.73438 10.8081 8.15039 12.8521 9.20898 13.8472C9.35352 13.9829 9.49805 14.1187 9.65234 14.2358C9.59766 14.2451 8.89258 14.1729 8.26758 13.8472C8.18555 13.793 8.14062 13.8198 8.13281 13.9194C8.12305 14.0552 8.13281 14.1816 8.16016 14.3354C8.32227 15.6201 9.20898 16.814 10.4297 17.2749C10.5742 17.3384 10.7363 17.3926 10.8906 17.4199C10.6113 17.4829 10.3301 17.5283 9.5332 17.4648C9.43359 17.4468 9.39844 17.4922 9.43359 17.5918C10.0312 19.2197 11.3242 19.708 12.293 19.9883C12.4199 20.0063 12.5547 20.0063 12.6816 20.043C12.6719 20.0518 12.6641 20.0518 12.6543 20.0698C12.3281 20.5581 11.2168 20.9199 10.7012 21.1011C9.75977 21.4268 8.72852 21.5806 7.73438 21.481C7.57227 21.4536 7.54492 21.4629 7.49805 21.481C7.45312 21.5078 7.49023 21.5439 7.54492 21.5894C7.74414 21.7251 7.95117 21.8428 8.16016 21.9512C8.79297 22.2856 9.45312 22.5571 10.1406 22.7471C13.7031 23.7329 17.7188 23.0093 20.3867 20.3501C22.4863 18.2607 23.2285 15.3848 23.2285 12.4995C23.2285 12.3911 23.3633 12.3276 23.4355 12.2642C23.9785 11.8574 24.4219 11.3599 24.8281 10.8174C24.9199 10.6904 24.9199 10.582 24.9199 10.5366C24.9199 10.5278 24.9199 10.5186 24.9199 10.5186C24.9102 10.4736 24.9102 10.4917 24.8457 10.5186Z" fill="#000000" fill-opacity="1.000000" fill-rule="nonzero"/>
</svg>
