<svg width="32.000000" height="32.000000" viewBox="0 0 32 32" fill="none" xmlns="http://www.w3.org/2000/svg" xmlns:xlink="http://www.w3.org/1999/xlink">
	<desc>
			Created with Pixso.
	</desc>
	<defs/>
	<path id="Vector" d="M32 16C32 24.8364 24.8359 32 16 32C7.16406 32 0 24.8364 0 16C0 7.16357 7.16406 0 16 0C24.8359 0 32 7.16357 32 16Z" fill="#F2F2F2" fill-opacity="1.000000" fill-rule="evenodd"/>
	<path id="Vector" d="M24.5645 13.7114C24.5645 11.5859 22.8457 9.86768 20.7207 9.86768L10.8984 9.86768C8.77344 9.86768 7.05469 11.5859 7.05469 13.7114L7.05469 18.2881C7.05469 20.4136 8.77344 22.1323 10.8984 22.1323L20.7207 22.1323C22.8457 22.1323 24.5645 20.4136 24.5645 18.2881L24.5645 13.7114ZM18.7852 16.3438L14.3809 18.5234C14.209 18.6138 13.6211 18.4873 13.6211 18.2974L13.6211 13.8203C13.6211 13.6211 14.209 13.4946 14.3906 13.5942L18.6055 15.8916C18.7852 15.9907 18.9668 16.2441 18.7852 16.3438Z" fill="#000000" fill-opacity="1.000000" fill-rule="nonzero"/>
</svg>
